<?xml version="1.0" encoding="UTF-8" standalone="no"?>
<svg
   xmlns:dc="http://purl.org/dc/elements/1.1/"
   xmlns:cc="http://creativecommons.org/ns#"
   xmlns:rdf="http://www.w3.org/1999/02/22-rdf-syntax-ns#"
   xmlns:svg="http://www.w3.org/2000/svg"
   xmlns="http://www.w3.org/2000/svg"
   xmlns:sodipodi="http://sodipodi.sourceforge.net/DTD/sodipodi-0.dtd"
   xmlns:inkscape="http://www.inkscape.org/namespaces/inkscape"
   width="1920"
   height="1080"
   viewBox="0 0 507.99999 285.75001"
   version="1.1"
   id="svg882"
   inkscape:version="1.0 (4035a4fb49, 2020-05-01)"
   sodipodi:docname="overlay-logo-bottom-left.svg"
   inkscape:export-filename="background-plain.png"
   inkscape:export-xdpi="96"
   inkscape:export-ydpi="96">
  <defs
     id="defs876">
    <inkscape:path-effect
       effect="spiro"
       id="path-effect1022"
       is_visible="true"
       lpeversion="0" />
  </defs>
  <sodipodi:namedview
     id="base"
     pagecolor="#ffffff"
     bordercolor="#666666"
     borderopacity="1.0"
     inkscape:pageopacity="0"
     inkscape:pageshadow="2"
     inkscape:zoom="0.70000002"
     inkscape:cx="982.54316"
     inkscape:cy="-38.511943"
     inkscape:document-units="mm"
     inkscape:current-layer="layer1"
     inkscape:document-rotation="0"
     showgrid="false"
     units="px"
     inkscape:window-width="3840"
     inkscape:window-height="2160"
     inkscape:window-x="1280"
     inkscape:window-y="0"
     inkscape:window-maximized="1" />
  <metadata
     id="metadata879">
    <rdf:RDF>
      <cc:Work
         rdf:about="">
        <dc:format>image/svg+xml</dc:format>
        <dc:type
           rdf:resource="http://purl.org/dc/dcmitype/StillImage" />
        <dc:title></dc:title>
      </cc:Work>
    </rdf:RDF>
  </metadata>
  <g
     inkscape:label="Layer 1"
     inkscape:groupmode="layer"
     id="layer1">
    <g
       transform="matrix(0.15023575,0,0,0.15023575,11.35624,99.274254)"
       id="g949">
      <path
         d="m 93.148283,-534.47158 c -3.82681,0.0558 -7.644186,0.39017 -11.416016,1.06445 -10.058204,1.79811 -19.805081,6.11734 -27.181641,13.18751 -8.13948,7.80139 -13.079417,18.8494 -13.466797,30.11718 -3.99622,2.10888 -8.40405,3.4336 -12.90039,3.88086 -7.77735,0.77365 -15.77305,-1.0479 -23.3749997,0.76758 -0.94936,0.22673 -1.8966519,0.51341 -2.7324219,1.01758 -0.835767,0.50419 -1.55776841,1.24693 -1.88085941,2.16797 -0.216178,0.61625 -0.244849,1.29161 -0.125,1.93359 0.119849,0.64197 0.38364213,1.25114 0.73632812,1.80078 0.70537699,1.09928 1.73867249,1.94441 2.78906249,2.72071 7.2675694,5.37114 16.0931424,8.30965 25.0019524,9.82617 6.86368,1.16839 13.861877,1.53869 20.810547,1.10156 -3.66233,3.94842 -7.987704,7.28142 -12.740234,9.81445 -6.28163,3.348 -13.215578,5.26934 -20.148438,6.88282 -0.26831,0.0624 -0.54186,0.12737 -0.78125,0.26367 -0.1197,0.0682 -0.228766,0.1535 -0.316406,0.25976 -0.0876,0.10626 -0.153063,0.23363 -0.177734,0.36914 -0.0264,0.14509 -0.006,0.29594 0.04687,0.4336 0.0529,0.13766 0.138604,0.26227 0.240234,0.36914 0.20326,0.21375 0.467534,0.35671 0.728516,0.49414 5.579858,2.93831 11.764373,4.75554 18.058593,5.14453 5.29451,0.3272 10.65039,-0.35655 15.69336,-2.00195 1.34499,1.59619 2.308079,3.51138 2.787109,5.54297 0.46069,1.95383 0.473496,4.01325 0.03711,5.97265 -15.37853,8.26449 -26.797436,23.55126 -30.359376,40.64258 -3.6325,17.42976 0.937813,36.29374 11.751954,50.4375 7.82674,10.23656 18.634909,17.96288 30.380859,23.26172 11.74595,5.29884 24.432216,8.26264 37.195315,10.03711 27.44543,3.8158 55.51197,2.23112 82.66211,-3.3086 14.77395,-3.01449 29.43278,-7.24149 42.72851,-14.35351 8.03418,-4.29756 15.56184,-9.71548 21.9336,-16.20508 -10.74736,-0.50447 -16.87693,-6.6294 -16.87696,-17.88281 v -25.60547 h -8.76757 v -9.96289 h 8.76757 v -12.1543 h 12.45313 v 12.1543 h 14.24609 v 9.96289 h -14.24609 v 25.30469 c 0,5.18064 2.59091,7.9707 7.37304,7.9707 2.49495,0 4.89097,-0.65414 6.75586,-2.03711 0.38587,-0.6187 0.77106,-1.2388 1.13672,-1.87109 6.45429,-11.16091 9.51011,-24.10867 9.80664,-36.99805 0.46344,-20.14501 -5.77656,-40.31333 -17.12109,-56.9668 -3.5925,-5.2737 -7.67541,-10.20069 -12.02344,-14.87109 -2.1052,-2.26129 -4.32093,-4.49898 -7.04687,-5.95313 -1.36297,-0.72707 -2.84682,-1.24785 -4.38086,-1.42968 -1.53403,-0.18184 -3.11915,-0.0176 -4.54688,0.57226 -1.32556,0.5476 -2.4842,1.44459 -3.5,2.45703 -1.01588,1.01245 -1.90259,2.14369 -2.81054,3.25391 -6.7215,8.21886 -14.85325,15.39071 -24.28125,20.27344 -13.29796,6.88697 -28.51482,8.95276 -43.43164,10.27734 -1.00835,0.0895 -2.05344,0.17352 -3.00782,-0.16406 -0.47719,-0.16879 -0.92218,-0.44668 -1.24804,-0.83399 -0.32586,-0.38732 -0.52581,-0.88885 -0.50391,-1.39453 0.0222,-0.51221 0.26472,-0.99494 0.58594,-1.39453 0.32121,-0.3996 0.72102,-0.72778 1.10937,-1.0625 6.48659,-5.59084 10.79428,-13.47705 12.76563,-21.81055 1.97138,-8.33349 1.69652,-17.09692 -0.0117,-25.48828 -2.95599,-14.51958 -10.60457,-28.52255 -22.8965,-36.79687 -7.49709,-5.04667 -16.33399,-7.76107 -25.21679,-9.42578 -6.27677,-1.17631 -12.684488,-1.85859 -19.062507,-1.76563 z m -18.580079,33.37305 c 5.904099,7e-4 10.689844,4.78731 10.689453,10.69141 -0.004,1.18997 -0.206669,2.37091 -0.599609,3.49414 -2.92735,-1.32576 -6.102847,-2.0148 -9.316406,-2.02149 -3.704732,0.005 -7.351883,0.91712 -10.623047,2.65625 -0.551748,-1.30683 -0.837905,-2.71038 -0.841797,-4.1289 -3.88e-4,-5.90486 4.786545,-10.69179 10.691406,-10.69141 z m 8.146485,78.35156 h 4.982422 v 9.96289 h -2.091797 c -4.98138,0 -7.373047,2.79014 -7.373047,7.57227 v 18.92969 c 0,6.17692 -1.893807,8.86696 -5.878906,10.16211 3.9851,1.29516 5.878906,3.98519 5.878906,10.1621 v 18.92969 c 0,4.78212 2.391667,7.57031 7.373047,7.57031 h 2.091797 v 9.9629 h -4.982422 c -11.25794,-1e-5 -16.935547,-5.67776 -16.935547,-16.23829 v -20.52343 c 0,-3.28771 -1.694805,-4.78321 -4.484375,-4.78321 h -3.28711 v -10.16211 h 3.28711 c 2.78957,0 4.484375,-1.49354 4.484375,-4.78125 v -20.52343 c 0,-10.56053 5.677607,-16.24024 16.935547,-16.24024 z m 15.955078,11.53125 h 50.910163 v 10.85938 h -37.95899 v 18.13086 h 33.67383 v 10.66015 h -33.67383 v 19.22852 h 39.35352 v 10.85937 H 98.669767 Z m 94.755863,15.93945 c 12.75234,0 22.2168,7.27245 22.2168,23.3125 v 30.48633 H 203.1893 v -28.89257 c 0,-9.46463 -4.68408,-14.04688 -12.65429,-14.04688 -8.86686,0 -14.84375,5.38086 -14.84375,16.04102 v 26.89843 h -12.45313 v -53.20117 h 11.85547 v 6.875 c 4.08473,-4.88177 10.56108,-7.47266 18.33203,-7.47266 z"
         style="fill:#fce7df;fill-opacity:1;fill-rule:nonzero;stroke:none;stroke-width:20;stroke-linecap:round;stroke-linejoin:round;stroke-miterlimit:4;stroke-dasharray:none;stroke-dashoffset:0;stroke-opacity:1"
         id="path1020" />
      <path
         d="m 100.80112,-285.06274 c -8.567989,0 -16.838799,2.1906 -22.517579,6.57422 l 4.88281,9.06641 c 3.9851,-3.28771 10.16102,-5.2793 16.13867,-5.2793 8.866869,0 13.251959,4.28382 13.251959,11.55664 v 0.79688 H 98.806971 c -16.13968,0 -22.11718,6.97298 -22.11718,15.83984 0,9.26537 7.6716,15.94141 19.82617,15.94141 7.970219,0 13.749469,-2.59096 16.738289,-7.17383 v 6.47656 h 11.75586 v -31.18359 c 0,-15.34266 -8.86633,-22.61524 -24.20899,-22.61524 z m -2.613289,30.9668 c 0.48167,-0.009 0.98674,-0.003 1.51563,0.0176 h 12.853519 v 6.17578 c -2.09218,5.47952 -7.37388,8.26953 -13.451179,8.26953 -6.37617,0 -10.16211,-2.88979 -10.16211,-7.37305 0,-3.64263 2.01912,-6.95689 9.24414,-7.08984 z"
         style="fill:#fce7df;fill-opacity:1;fill-rule:nonzero;stroke:none;stroke-width:20;stroke-linecap:round;stroke-linejoin:round;stroke-miterlimit:4;stroke-dasharray:none;stroke-dashoffset:0;stroke-opacity:1"
         id="path938" />
      <path
         d="m 354.79917,-285.06274 c -16.33893,0 -28.29492,11.25684 -28.29492,27.19727 0,15.94042 11.95599,27.29883 28.29492,27.29883 16.53819,0 28.39258,-11.35841 28.39258,-27.29883 0,-15.94043 -11.85439,-27.19727 -28.39258,-27.19727 z m 0,10.56055 c 9.06612,0 15.83985,6.4747 15.83985,16.63672 0,10.16202 -6.77373,16.63867 -15.83985,16.63867 -8.96648,0 -15.74219,-6.47665 -15.74219,-16.63867 0,-10.16202 6.77571,-16.63672 15.74219,-16.63672 z"
         style="fill:#fce7df;fill-opacity:1;fill-rule:nonzero;stroke:none;stroke-width:20;stroke-linecap:round;stroke-linejoin:round;stroke-miterlimit:4;stroke-dasharray:none;stroke-dashoffset:0;stroke-opacity:1"
         id="path942" />
      <path
         id="path950"
         d="m 232.62972,-284.46585 v 53.20117 h 12.45313 v -53.20117 z"
         style="fill:#fce7df;fill-opacity:1;fill-rule:nonzero;stroke:none;stroke-width:20;stroke-linecap:round;stroke-linejoin:round;stroke-miterlimit:4;stroke-dasharray:none;stroke-dashoffset:0;stroke-opacity:1" />
      <path
         id="path948"
         d="m 464.24579,-394.18775 v 53.20117 h 12.45312 v -53.20117 z"
         style="fill:#fce7df;fill-opacity:1;fill-rule:nonzero;stroke:none;stroke-width:20;stroke-linecap:round;stroke-linejoin:round;stroke-miterlimit:4;stroke-dasharray:none;stroke-dashoffset:0;stroke-opacity:1" />
      <path
         id="path946"
         d="m 344.5661,-394.18775 v 30.38672 c 0,16.04005 9.26702,23.51172 22.91601,23.51172 6.8743,0 13.14967,-2.59091 17.13477,-7.47266 v 6.77539 h 11.85547 v -53.20117 h -12.45313 v 26.89844 c 0,10.66016 -5.87732,16.04101 -14.54492,16.04101 -7.87059,0 -12.45312,-4.58221 -12.45312,-14.24609 v -28.69336 z"
         style="fill:#fce7df;fill-opacity:1;fill-rule:nonzero;stroke:none;stroke-width:20;stroke-linecap:round;stroke-linejoin:round;stroke-miterlimit:4;stroke-dasharray:none;stroke-dashoffset:0;stroke-opacity:1" />
      <path
         id="path944"
         d="m 424.30941,-285.06351 c -7.77096,0 -14.24729,2.58896 -18.33203,7.47071 v -6.87305 h -11.85547 v 53.20117 h 12.45312 v -26.90039 c 0,-10.66016 5.97885,-16.03906 14.84571,-16.03906 7.97021,0 12.65234,4.58225 12.65234,14.04687 v 28.89258 h 12.45313 v -30.48633 c 0,-16.04005 -9.46446,-23.3125 -22.2168,-23.3125 z"
         style="fill:#fce7df;fill-opacity:1;fill-rule:nonzero;stroke:none;stroke-width:20;stroke-linecap:round;stroke-linejoin:round;stroke-miterlimit:4;stroke-dasharray:none;stroke-dashoffset:0;stroke-opacity:1" />
      <path
         id="path940"
         d="m 158.94222,-285.06351 c -14.34638,0 -23.41211,6.57433 -23.41211,16.63672 0,21.22069 32.87696,11.65634 32.87696,21.81836 0,3.68623 -3.28763,5.87891 -11.15821,5.87891 -6.67505,0 -13.84875,-2.19279 -18.53125,-5.28125 l -4.78125,9.46484 c 4.78213,3.38734 13.64877,5.97852 22.51563,5.97852 14.94414,0 24.10937,-6.47669 24.10937,-16.43946 0,-20.82218 -32.87695,-11.25778 -32.87695,-22.01757 0,-3.48697 3.5865,-5.97657 11.1582,-5.97657 5.08101,0 10.16313,0.99555 15.24414,3.98438 l 4.78125,-9.46485 c -4.78213,-2.8892 -12.85222,-4.58203 -19.92578,-4.58203 z"
         style="fill:#fce7df;fill-opacity:1;fill-rule:nonzero;stroke:none;stroke-width:20;stroke-linecap:round;stroke-linejoin:round;stroke-miterlimit:4;stroke-dasharray:none;stroke-dashoffset:0;stroke-opacity:1" />
      <path
         id="path936"
         d="m 430.82586,-394.78541 c -14.34638,0 -23.41211,6.57433 -23.41211,16.63672 0,21.22069 32.87696,11.65634 32.87696,21.81836 0,3.68623 -3.28762,5.87891 -11.15821,5.87891 -6.67505,0 -13.84875,-2.19279 -18.53125,-5.28125 l -4.78125,9.46484 c 4.78213,3.38734 13.64877,5.97852 22.51563,5.97852 14.94415,0 24.10937,-6.47669 24.10937,-16.43946 0,-20.82218 -32.87695,-11.25778 -32.87695,-22.01757 0,-3.48697 3.58649,-5.97657 11.1582,-5.97657 5.08101,0 10.16118,0.99555 15.24219,3.98438 l 4.7832,-9.46485 c -4.7821,-2.8892 -12.85221,-4.58203 -19.92578,-4.58203 z"
         style="fill:#fce7df;fill-opacity:1;fill-rule:nonzero;stroke:none;stroke-width:20;stroke-linecap:round;stroke-linejoin:round;stroke-miterlimit:4;stroke-dasharray:none;stroke-dashoffset:0;stroke-opacity:1" />
      <path
         id="path932"
         d="m 193.07699,-296.22171 v 12.1543 h -8.76758 v 9.96289 h 8.76758 v 25.60351 c 0,11.75606 6.67559,17.9336 18.33203,17.9336 4.48324,0 8.96625,-1.19488 11.95508,-3.58594 l -3.48633,-8.86719 c -1.89293,1.49441 -4.38429,2.19141 -6.97461,2.19141 -4.78213,0 -7.37305,-2.79004 -7.37305,-7.97071 v -25.30468 h 14.24805 v -9.96289 h -14.24805 v -12.1543 z"
         style="fill:#fce7df;fill-opacity:1;fill-rule:nonzero;stroke:none;stroke-width:20;stroke-linecap:round;stroke-linejoin:round;stroke-miterlimit:4;stroke-dasharray:none;stroke-dashoffset:0;stroke-opacity:1" />
      <path
         id="path928"
         d="m 294.02425,-302.00101 c -21.41995,0 -37.36132,15.04501 -37.36133,35.86719 0,20.82218 15.9414,35.86522 37.26172,35.86524 11.45718,0 21.21953,-4.08456 27.69532,-11.65626 l -8.36914,-7.9707 c -5.08101,5.57915 -11.35609,8.26953 -18.62891,8.26953 -14.44601,0 -24.9082,-10.16143 -24.9082,-24.50781 0,-14.34638 10.46219,-24.50978 24.9082,-24.50976 7.27282,0 13.5479,2.6904 18.62891,8.16992 l 8.36914,-7.8711 c -6.47579,-7.5717 -16.23816,-11.65625 -27.59571,-11.65625 z"
         style="fill:#fce7df;fill-opacity:1;fill-rule:nonzero;stroke:none;stroke-width:20;stroke-linecap:round;stroke-linejoin:round;stroke-miterlimit:4;stroke-dasharray:none;stroke-dashoffset:0;stroke-opacity:1" />
      <path
         id="path926"
         d="m 279.60321,-414.91041 v 73.92383 h 12.45508 v -26.90039 c 0,-10.66016 5.97689,-16.03906 14.84375,-16.03906 7.97022,0 12.65234,4.58225 12.65234,14.04687 v 28.89258 h 12.45312 v -30.48633 c 0,-16.04005 -9.46445,-23.3125 -22.21679,-23.3125 -7.37245,0 -13.64769,2.38982 -17.73242,6.77344 v -26.89844 z"
         style="fill:#fce7df;fill-opacity:1;fill-rule:nonzero;stroke:none;stroke-width:20;stroke-linecap:round;stroke-linejoin:round;stroke-miterlimit:4;stroke-dasharray:none;stroke-dashoffset:0;stroke-opacity:1" />
      <path
         id="path924"
         d="m 238.90707,-308.17679 c -4.58288,0 -7.97071,3.28632 -7.97071,7.47071 0,4.18433 3.38783,7.47265 7.97071,7.47265 4.6825,0 7.96875,-3.38787 7.96875,-7.77148 0,-4.08474 -3.38588,-7.17188 -7.96875,-7.17188 z"
         style="fill:#fce7df;fill-opacity:1;fill-rule:nonzero;stroke:none;stroke-width:20;stroke-linecap:round;stroke-linejoin:round;stroke-miterlimit:4;stroke-dasharray:none;stroke-dashoffset:0;stroke-opacity:1" />
      <path
         id="path922"
         d="m 470.52313,-417.89869 c -4.58287,0 -7.9707,3.28632 -7.9707,7.47071 0,4.18433 3.38783,7.47265 7.9707,7.47265 4.6825,0 7.9707,-3.38787 7.9707,-7.77148 0,-4.08474 -3.38783,-7.17188 -7.9707,-7.17188 z"
         style="fill:#fce7df;fill-opacity:1;fill-rule:nonzero;stroke:none;stroke-width:20;stroke-linecap:round;stroke-linejoin:round;stroke-miterlimit:4;stroke-dasharray:none;stroke-dashoffset:0;stroke-opacity:1" />
      <path
         id="path918"
         d="m 457.01348,-303.79776 v 9.96289 h 2.09179 c 5.08101,0 7.47266,2.7882 7.47266,7.57032 v 18.92968 c 0,6.17692 1.79227,8.86695 5.77734,10.16211 -3.98509,1.29516 -5.77734,3.98519 -5.77734,10.16211 v 18.92969 c 0,4.78213 -2.52669,6.40856 -7.47266,7.57227 h -2.09179 v 9.96093 h 4.98047 c 11.25792,0 17.03711,-5.67775 17.03711,-16.23828 v -20.52343 c 0,-3.28771 1.7208,-5.16787 4.38281,-4.78125 h 3.38867 v -10.16211 h -3.38867 c -2.68994,0 -4.38281,-1.4955 -4.38281,-4.78321 v -20.52343 c 0,-10.56053 -5.83376,-17.34539 -17.03711,-16.23829 z"
         style="fill:#fce7df;fill-opacity:1;fill-rule:nonzero;stroke:none;stroke-width:20;stroke-linecap:round;stroke-linejoin:round;stroke-miterlimit:4;stroke-dasharray:none;stroke-dashoffset:0;stroke-opacity:1" />
    </g>
  </g>
</svg>
